<svg xmlns="http://www.w3.org/2000/svg" viewBox="0 0 180 180" fill="none">
  <rect width="180" height="180" rx="16" fill="#fff"/>
  <rect x="12" y="12" width="52" height="52" rx="4" fill="#0B2A5B"/>
  <rect x="20" y="20" width="36" height="36" rx="2" fill="#fff"/>
  <rect x="28" y="28" width="20" height="20" rx="1" fill="#0B2A5B"/>
  <rect x="116" y="12" width="52" height="52" rx="4" fill="#0B2A5B"/>
  <rect x="124" y="20" width="36" height="36" rx="2" fill="#fff"/>
  <rect x="132" y="28" width="20" height="20" rx="1" fill="#0B2A5B"/>
  <rect x="12" y="116" width="52" height="52" rx="4" fill="#0B2A5B"/>
  <rect x="20" y="124" width="36" height="36" rx="2" fill="#fff"/>
  <rect x="28" y="132" width="20" height="20" rx="1" fill="#0B2A5B"/>
  <rect x="82" y="18" width="8" height="8" fill="#0B2A5B"/>
  <rect x="98" y="18" width="8" height="8" fill="#0B2A5B"/>
  <rect x="74" y="34" width="8" height="8" fill="#0B2A5B"/>
  <rect x="90" y="34" width="8" height="8" fill="#0B2A5B"/>
  <rect x="106" y="34" width="8" height="8" fill="#0B2A5B"/>
  <rect x="74" y="50" width="8" height="8" fill="#0B2A5B"/>
  <rect x="90" y="50" width="8" height="8" fill="#0B2A5B"/>
  <rect x="106" y="50" width="8" height="8" fill="#0B2A5B"/>
  <rect x="74" y="74" width="8" height="8" fill="#0B2A5B"/>
  <rect x="90" y="74" width="8" height="8" fill="#0B2A5B"/>
  <rect x="106" y="74" width="8" height="8" fill="#0B2A5B"/>
  <rect x="122" y="74" width="8" height="8" fill="#0B2A5B"/>
  <rect x="138" y="74" width="8" height="8" fill="#0B2A5B"/>
  <rect x="58" y="90" width="8" height="8" fill="#0B2A5B"/>
  <rect x="74" y="90" width="8" height="8" fill="#0B2A5B"/>
  <rect x="90" y="90" width="8" height="8" fill="#0B2A5B"/>
  <rect x="122" y="90" width="8" height="8" fill="#0B2A5B"/>
  <rect x="138" y="90" width="8" height="8" fill="#0B2A5B"/>
  <rect x="58" y="106" width="8" height="8" fill="#0B2A5B"/>
  <rect x="90" y="106" width="8" height="8" fill="#0B2A5B"/>
  <rect x="106" y="106" width="8" height="8" fill="#0B2A5B"/>
  <rect x="122" y="106" width="8" height="8" fill="#0B2A5B"/>
  <rect x="74" y="122" width="8" height="8" fill="#0B2A5B"/>
  <rect x="90" y="122" width="8" height="8" fill="#0B2A5B"/>
  <rect x="106" y="122" width="8" height="8" fill="#0B2A5B"/>
  <rect x="138" y="122" width="8" height="8" fill="#0B2A5B"/>
  <rect x="74" y="138" width="8" height="8" fill="#0B2A5B"/>
  <rect x="106" y="138" width="8" height="8" fill="#0B2A5B"/>
  <rect x="122" y="138" width="8" height="8" fill="#0B2A5B"/>
  <rect x="138" y="138" width="8" height="8" fill="#0B2A5B"/>
</svg>
